<svg xmlns="http://www.w3.org/2000/svg" xmlns:xlink="http://www.w3.org/1999/xlink" viewBox="0 0 820.65 198"><defs><style>.cls-1{fill:none;}.cls-2{clip-path:url(#clip-path);}.cls-3{fill:#ccaf61;}.cls-4{fill:#caad59;}</style><clipPath id="clip-path"><rect class="cls-1" y="23.73" width="352.63" height="151.44"/></clipPath></defs><title>112</title><g id="Layer_2" data-name="Layer 2"><g id="Layer_1-2" data-name="Layer 1"><g class="cls-2"><path class="cls-3" d="M272.12,146.39a2.07,2.07,0,1,1,2-2.06,2,2,0,0,1-2,2.06m0-4.54a2.48,2.48,0,1,0,2.5,2.48,2.46,2.46,0,0,0-2.5-2.48m-.53,2.3v-.88h.59c.3,0,.63,0,.63.41s-.34.47-.71.47Zm1.67-.44c0-.56-.34-.82-1-.82h-1.09v2.86h.44v-1.24h.5l.75,1.24h.49l-.82-1.26a.75.75,0,0,0,.75-.78"/><path class="cls-3" d="M0,125.4v2c2,.1,4.76,1.44,4.76,3.14v39c0,2.08-2.75,3-4.77,3.1v2a149.94,149.94,0,0,1,18.36,0v-2c-2-.1-4.76-1.43-4.76-3.14v-39c0-2.09,2.75-3,4.77-3.11v-2A146.05,146.05,0,0,1,0,125.4m259.75,39.45c-.12,1.13.81,5.58-4.9,5.64-3.75,0-3.85-3.48-3.89-4.85-.17-6.32,8.79-7.21,8.79-7.21v6.42Zm9.93,6c-1.44,0-2.19-.89-2.19-4V151s-.27-8-11.66-8c-9.86,0-12.62,6-12.29,8.29a2.83,2.83,0,0,0,2.73,2.09c2.67.14,4.28-3.27,5.74-5.56s2.82-2.51,4-2.46a4.52,4.52,0,0,1,3.74,4.34v5.49s-1.51.57-3.39,1.13c-2.82.84-6.22,1.61-7,2a9.75,9.75,0,0,0-6.56,9.38s.36,7.23,8.65,7.29c4.9,0,8.62-3.83,8.62-3.83s2.23,4.05,6.68,3.92c5.55-.16,7.2-5.83,7.2-5.83l-1.28-.64s-1.57,2.24-3,2.28m-70.42,1.65c-5.06,0-8-5.86-8-13.39s2.89-13.67,8-13.64,8,6.11,8,13.64-2.76,13.39-8,13.39m0-29.4c-9.34,0-17,6.57-16.91,16.09.1,8.8,7.57,15.94,16.91,15.94s16.93-7.14,16.89-15.94c0-9.31-6.65-16.09-16.89-16.09m-29.95-11.31a4.72,4.72,0,0,0,2.41-5.47,7.36,7.36,0,0,0-5-3.72c-7-1.53-12.68.76-17.92,7-4.16,4.81-3.37,11.74-3.58,17.48h-4.8v2.59h4.8l0,19.95c0,2.08-2.75,3-4.76,3.1v2a137.16,137.16,0,0,1,17.56,0v-2c-2-.1-4.76-1.43-4.76-3.14V149.65h6.16v-2.59h-6.16s-.25-15.94,1.29-18.45,2.74-2.31,4.71-2.31c2.62.22,3.5,3.28,5.46,4.81,1.1,1.09,3.06,1.09,4.59.66m7.7,37.79V138.09l0-7h-2.71a17.21,17.21,0,0,1-9,3.67v1.78c.92.13,3.4.7,3.55,2.58V169.6c0,2.08-2.74,3-4.76,3.1v2a140,140,0,0,1,17.74,0v-2c-2-.1-4.76-1.43-4.76-3.14M235.78,144c-2.85.87-4.81,3.71-5.69,6.34l-.11-7h-2.36a17.4,17.4,0,0,1-9.05,3.68v1.77c.93.14,3.41.7,3.56,2.58V169.6c0,2.08-2.74,3-4.76,3.1v2a140,140,0,0,1,17.74,0v-2c-2-.1-4.76-1.43-4.76-3.14V155.32a7,7,0,0,1,2.16-4.74c1.06-1,2.84.21,3.93.87a4.25,4.25,0,0,0,5-1.53,3.77,3.77,0,0,0-.44-4.59,5.1,5.1,0,0,0-5.24-1.31M132.2,144c-2.84.87-4.81,3.71-5.68,6.34l-.12-7H124a17.33,17.33,0,0,1-9,3.68v1.77c.92.14,3.41.7,3.56,2.58V169.6c0,2.08-2.75,3-4.77,3.1v2a140,140,0,0,1,17.74,0v-2c-2-.1-4.75-1.43-4.75-3.14V155.32a7,7,0,0,1,2.15-4.74c1.07-1,2.84.21,3.94.87a4.25,4.25,0,0,0,5-1.53,3.79,3.79,0,0,0-.44-4.59A5.12,5.12,0,0,0,132.2,144m-40.87,8.71c.72-3.65,1.57-5.6,4.78-6.63a5.13,5.13,0,0,1,6,2.26c.69,1.09,2,3.55,1.23,4.3l-11.61,9.22s-1.16-5.33-.41-9.15m10.25,16.8c-7.16-.61-8.71-4.76-8.71-4.76l18.58-15.08-.87-1.53a6.1,6.1,0,0,1-2.31-1.1,16.17,16.17,0,0,0-14.07-3.15c-7.24,1.85-14.07,9-11.41,19.61,2.5,10,11.41,11.56,16.32,11.61,6.91.07,11.89-5.53,12.37-6.35L110,166.94s-2.87,3.07-8.46,2.59m-26.26,1.36c-2.37,0-2.82-3.09-2.82-3.09V147.06h6.83v-2.73H72.5V136.5H70.13a20.3,20.3,0,0,1-4.19,4.91,38.86,38.86,0,0,1-5.64,3.75v1.9h4.37v20.85c0,3.74,2,7.27,7.83,7.27S80.15,171,80.15,171l-1.91-1.37a3.27,3.27,0,0,1-2.92,1.25m-20.69-1.33V153.73a9.42,9.42,0,0,0-3.93-8.63C45,141.83,38,144.67,33.2,147.72L33,143.33l-2.67,0a17.33,17.33,0,0,1-9,3.68v1.77c.92.14,3.4.7,3.56,2.58V169.6c0,2.08-2.75,3-4.76,3.1v2a144.6,144.6,0,0,1,18,0v-2c-2-.1-4.74-1.43-4.74-3.14V152.22c1.3-2.74,5.48-4.72,9.41-3.62,1.76.44,3.16,2.94,3.29,5.1v15.9c0,2.08-2.75,3-4.77,3.1v2a144.76,144.76,0,0,1,18,0v-2c-2-.1-4.75-1.43-4.75-3.14"/></g><path class="cls-3" d="M224.47,48.18a1,1,0,0,0,.6-.21,71.63,71.63,0,0,1,76.62-10,.92.92,0,0,0,.79-1.66,73.48,73.48,0,0,0-78.6,10.25.92.92,0,0,0,.59,1.62M341,80a.93.93,0,0,0-1.16-.59.92.92,0,0,0-.59,1.16,71.71,71.71,0,0,1-9.07,62.64.92.92,0,0,0,1.52,1h0A73.56,73.56,0,0,0,341,80M201.51,83.27a.94.94,0,0,0,.9-.7,65.83,65.83,0,0,1,7.63-17,.93.93,0,0,0-.31-1.27.91.91,0,0,0-1.26.31,73.89,73.89,0,0,0-7.84,17.54.89.89,0,0,0,.67,1.11.76.76,0,0,0,.21,0"/><g class="cls-2"><path class="cls-3" d="M344.31,174.24a2.07,2.07,0,1,1,2-2.06,2,2,0,0,1-2,2.06m0-4.54a2.48,2.48,0,1,0,2.5,2.48,2.47,2.47,0,0,0-2.5-2.48m-.53,2.29v-.87h.59c.31,0,.63,0,.63.41s-.33.46-.7.46Zm1.67-.43c0-.56-.34-.82-1-.82h-1.09v2.86h.44v-1.24h.5l.75,1.24h.49l-.82-1.26a.74.74,0,0,0,.75-.78"/><path class="cls-3" d="M351.72,65.4h-.09c-.94-.68-2.66-1.42-5.54-2.92-5.81-3-8.28-2.81-11.11-3.45-3.67-.83-2.67-1.54-8.22-3.08s-7.23-1.34-7.23-1.34c1.33-4.25,4-1.89,5.48-2.2,1.26-.26,1.93-1,1.84-2.83A7.22,7.22,0,0,1,328,45.86a10.47,10.47,0,0,0,1.12-.42c.18-.11.19-.36,0-.65a8,8,0,0,1-1.07-2.61c-.27-1.58.45-2.8.14-3.36-4.78-1.49-14.09,2.94-13.17,1.7,7.38-5,16.84-4.72,14.95-5.85-2.58-1.53-2-2.54-5.4-5a9.49,9.49,0,0,0-6.6-1.34c.48-.82,1.69-3,1.25-4.13-.54-1.36-8.62.55-14.07.73a24.18,24.18,0,0,1-8.74-1.09s.82,2.19,4.57,3a19.78,19.78,0,0,0,7,.09c.11,0,.56.77.56.77a13.11,13.11,0,0,1-4.34.5,18.67,18.67,0,0,1-5.77-1,9.24,9.24,0,0,0,5.43,2.84,13.63,13.63,0,0,0,5.84-.32l.58.76a11.6,11.6,0,0,1-9.3-.44s.74,1.77,3.7,2.36a10.57,10.57,0,0,0,4.69,0A9.7,9.7,0,0,0,308,36.44a20.49,20.49,0,0,0-.59,3.33c-.84,3.61-4.75,6.56-4.16,6.9s7.06-3,7.06-3,0,4.36-2.19,7.16-4.91,2.25-8.72,3.25c-2.06.54-2.68,1-4,.85a18.53,18.53,0,0,0-6.76.3c-3.16.85-6.82,3.16-8.87,3.62-1.83.41-7.7.94-10.1,1.73l-1.78.62a14.14,14.14,0,0,1-3.8,1,8.41,8.41,0,0,1-2.49-.2,16.29,16.29,0,0,0-5.26-.64,30.46,30.46,0,0,0-7.32,1.35c-3.85,1-8,2.37-10,2.36-2.95,0-3.75-.68-6.11-1.61-1.17-.46-3.94-.29-5.92.33a22.12,22.12,0,0,1-2.73-2.35c-1.2-1.41-1.26-4-3-5.87a8.08,8.08,0,0,1-1.89-6c.12-1.69.41-2.15,0-4.05s-1.59-2.78-1.84-2.66a4.58,4.58,0,0,0-.23,3.25c.59,1.93.28,3.57.25,5.41,0,1.05.67,2.82.51,2.82a4.13,4.13,0,0,1-1.76-2.92c-.11-.73-.11-4.84-1.11-6.18s-1.17-3.87-1.33-4.79c-.57-3.43-1.4-6-1.85-5.8-.23.12-.39.61-.51,1.47a24.48,24.48,0,0,0,.17,5.48s0,0,0,0c-.66-1.07-1.7-1.6-2.67-1a7.73,7.73,0,0,0-.75.55,28.65,28.65,0,0,0,.34-4.39c0-2-.69-2-1.85-2.46s-1.11-.77-1.72-1.81-1.62-1.58-2.58-1-2.65,2.35-4,2.35-1.77.42-2.58,2.19-1.3,1.15-1.53,2.5c-.17,1,1.24,4.82,5,6.07a16,16,0,0,0,3.14.72,2.91,2.91,0,0,0-1.6,2.47c-.15,2.31,1.91,5.52,5.2,6.48a16.15,16.15,0,0,0,5.74.46c2.61.37,4.39,2,6.18,3.25,1.18.86,3.16,3.21,4.18,4.18.41.39,2.9,2.15,3.1,2.38v0A1.8,1.8,0,0,0,225,65a39,39,0,0,1-4.17-2.87c-1.11-1-4.23-4.53-7.77-6-.52-.22-1.51.23-3.19.4a12.88,12.88,0,0,1-3.46-.15c-.61-.07-1,.59-3.6,1.48a19.87,19.87,0,0,0-5.26,2.82c-.67.49-.27.83.18.95s5.3,1.18,7.49,0a13,13,0,0,1,5.84-2c1.69,0,3.38.67,5.38,2.51s2.34,1.54,3.51,1.82a15.55,15.55,0,0,1,4.75,2.82,18,18,0,0,0,3.89,2.57c2,1.07,13.06,8.66,13.73,8.94s1.4-.85,1.12-1.16-1-.79-1.19-1.07-.3-1.25-.46-1.54a27.28,27.28,0,0,0-3.51-2.12c-1.34-.8-2.67-1.69-3.87-2.57,3.51-.41,8.82-.31,16.28-.06,4.89.16,9.16-.92,12.61-.93,3.79,0,6.68,1.15,10.57,1.15,7,0,8.6-.13,8.6-.13s-2,7.89-2,13.62c0,4.69-2.24,5-7.19,8.07a12.86,12.86,0,0,0-4.79,5.15c-.09,0-9.31.37-16.66,4.09-7.14,3.6-8.58,3.85-9.11,4.08a1.21,1.21,0,0,1-.83.12,60.77,60.77,0,0,0-13.27-4.06,29.73,29.73,0,0,0-9.07.25c-5.31,0-10.48.19-10.48.19l3.38-2.55c1-.58,2.59-1.68,2.74-2.68.22-1.45-7.72-3.89-12.51-6.49a24.35,24.35,0,0,1-7-5.37s-.39,2.31,2.42,4.92A19.24,19.24,0,0,0,204,92.78a.15.15,0,0,1,0,.06l0,.89A13.1,13.1,0,0,1,200.18,92a18.8,18.8,0,0,1-4.47-3.78,9.22,9.22,0,0,0,3.24,5.2,13.54,13.54,0,0,0,5.21,2.68l.05.46,0,.49A11.58,11.58,0,0,1,196.47,92s-.29,1.76,2,3.9a15.62,15.62,0,0,0,5.89,3.46l.07,1.6a5,5,0,0,1-3.06-1.4c-.74-1-2-2.29-3.07-2.43-2.47-.3-3.89,1.64-5.77,3.2s-3.43.79-6.31,1.82-4.36,4.38-4.08,5.09-.2.88,4.07-.19,4.45-1.16,8.64-.6,6.79-.59,9.63-.67c4.53-.13,4.84.77,13.06,2.57s21.63,5,21.84,5.15a14.52,14.52,0,0,0,7.62,1.15c4.85-.4,7.47.12,13.45-.69,12.47-1.69,15.7-3.57,15.7-3.57s4.45,3,10.45,6.41c9.61,5.46,16.46,8.46,16.46,8.46s2.4,9.73,5.35,14.33a28,28,0,0,0,4.21,4.72c2.25,2.61,4.31,5,6.32,7.46-.44,0-.88.06-1.31.07a24.18,24.18,0,0,1-8.74-1.09s.83,2.19,4.58,3a19.48,19.48,0,0,0,7,.09c.12,0,.56.77.56.77a13,13,0,0,1-4.33.5,18.69,18.69,0,0,1-5.78-1,9.22,9.22,0,0,0,5.43,2.84,13.6,13.6,0,0,0,5.84-.32l.46.6a1.42,1.42,0,0,0,.08.18,11.57,11.57,0,0,1-9.25-.46s.64,1.67,3.69,2.36a11.63,11.63,0,0,0,6.13.1,5,5,0,0,1-.77,2.53c-.52,1.18-1.48,3.18-1,4.2,1,2.28,4.47,1.86,6.77,2.67s2.45,2.52,4.81,4.46,6,1.48,6.47.87.86-.28-2.26-3.38-3.29-3.22-5-7.09c-1.58-3.64-1.68-2.79-4.41-6.78a4.83,4.83,0,0,0,.94-1.11s2-3.09,1.45-4.45c-.3-.76-2.53-.58-5.39-.24,0,0-3-9.79-5.19-16.32a137.47,137.47,0,0,0-5.62-13.56,11.44,11.44,0,0,1-.4-1.39,6.94,6.94,0,0,0-1.45-2.7c-.89-1-3.56-3-3.83-3.29s-1.93-2.56-5.73-6.63S292,97.28,292,97.28c.26-1.65.77-2,2.26-3.67A25.42,25.42,0,0,1,299,89.39,60.52,60.52,0,0,0,310.65,79h0a1.69,1.69,0,0,1-1-.7l-.1-.2v-.23c0-.12.13-2.81,3.49-3.69l1.2-.31.49-.12c-.8-.48-1-1-.83-1a17.22,17.22,0,0,0,2.61.44h.22c1.16.05,2.39.28,1.28.62-1.91.57-2,.51-4.73,1.23s-2.81,2.83-2.81,2.83c.16.32,2.3.73,5.6.58s6.9-2,9.42-2.41c4.34-.64,11.52,1.2,17.3-1.07,3.71-1.47,4.6-3.15,6-3.94a14.4,14.4,0,0,0,3.48-2.48,2.35,2.35,0,0,0-.53-3.17M202.19,39.86a4.94,4.94,0,0,1-4.9-1.21c-.32-.36-.07-.76.47-.52a3.85,3.85,0,0,0,2.2.45,5.36,5.36,0,0,1,.12-2.68,4.1,4.1,0,0,1,2.13-1.85c.53-.17.69.37.41.46a2.35,2.35,0,0,0-1.52,1.89c-.17,1.3,1.19,1.61,2,.93a4.26,4.26,0,0,0,1.13-2.21c.17-.55.61-.31.65.12s.23,3.9-2.64,4.62m6.57,9.24A5,5,0,0,1,203.84,48c-.32-.36-.07-.75.47-.53a3.7,3.7,0,0,0,2.21.42,4.81,4.81,0,0,1,.2-2.63,3.18,3.18,0,0,1,1.12-1.45c.42-.28.62.24.37.5a2.65,2.65,0,0,0-.58,1.39c-.16,1.3,1.21,1.59,2,.9a4.3,4.3,0,0,0,1.1-2.21c.16-.56.6-.32.64.11s.28,3.88-2.57,4.64m65.09,59.35c-.13.49-6,1.78-11.34,2.64s-7.35,1.51-7.26.54,3.83-.66,7.92-2.85,5-5,5.84-5.09.31.3,1.84,1.93,3.13,2.33,3,2.83m22.59,9.42c-.47,1.13-4.26-1.08-13.4-6.78-8-5-11.43-6.71-11.13-11.64.21-3.36,3.87-6.46,7.09-7.14,1.49-.31,2-.07,3.76,1,2.21,1.39,2.69,2,2.19,2.26-2.65,1.43-4.72,5.46-3.64,7.95,2.05,4.71,15.59,13.17,15.13,14.3m-4.39-42.42c-6.25,3.62-6.15,6.49-6.41,7.08s-2.77-1-2.66-2.26a46.51,46.51,0,0,1,1-5.47c.69-3.17,1.28-5.31,1.69-5.51a26.8,26.8,0,0,0,5-2.3c1.46-1.1,2-3.56,2.61-3.59s-.54,4.34,1.69,6.1,7.46,2.44,7.38,2.93-4-.59-10.3,3m19.09-18.7a34.63,34.63,0,0,1-5.82.52c-2.54.08-5.39.4-6,.4-1.21,0-1-1.16,1.71-1.61s6.78-1.51,8.89-3.62S311.34,46,312.15,46s-.3,4.47,3.21,5.27c-3.51,2.11-1.86,4.92-4.22,5.51M331.64,71a13,13,0,0,1-7.86,1.36c-1.17-.15-1.85-.2-2.41-.26a9.93,9.93,0,0,1-1-.14,10.75,10.75,0,0,0,4.89-6.86,23.43,23.43,0,0,0,6.4,2.09c2.34.46,4.61.37,5.57.81-1.74.59-3.11,1.84-5.55,3"/></g><path class="cls-3" d="M186.9,54.77c.16.73,1.17,1.51,2.8,2,.52.17.17,1.29,1.56,1.44,4.73.53,11.77-1,13.12-2,.69-.51.21-1.67-1.23-2.74a12.52,12.52,0,0,1-4.72-5.71c-1.24-3.08-2.56-3.51-3.56-3.85-.73-.24-2-.16-3.63,1.18S188.3,46.3,187.45,48s.17,2.73,0,3.78-.84,1.78-.58,3m2.63-2.06a4.05,4.05,0,0,0,2.4-.51,5.29,5.29,0,0,1-.92-2.74,3.67,3.67,0,0,1,.52-2c.31-.45.72,0,.59.36a2.93,2.93,0,0,0,0,1.65,1.23,1.23,0,0,0,2.36.08,4.7,4.7,0,0,0,.17-2.71c-.07-.63.48-.58.7-.16s1.93,3.8-.63,5.78a5.42,5.42,0,0,1-5.44.93c-.48-.23-.4-.72.25-.73"/><path class="cls-3" d="M311.42,161.88a71.3,71.3,0,0,1-19.69,9.39h-.05a.92.92,0,0,0-.56,1.18.91.91,0,0,0,1.17.56h0a73.31,73.31,0,0,0,20.12-9.61.94.94,0,0,0,.24-1.28.92.92,0,0,0-1.28-.24"/><path class="cls-4" d="M569.4,32.14l-5.47,6.08c4.12,5.1,6.15,12.07,6.15,19.35,0,14.62-8.4,27.89-25.2,27.89-7.43,0-13.2-2.54-17.33-6.67l-5.7,6.45-2-1.87,5.92-6.6c-4.12-5.18-6.15-12-6.15-19.2,0-14.63,8.4-27.9,25.28-27.9,7.35,0,13.12,2.55,17.25,6.6l5.32-5.85Zm-10.5,7.73a18.29,18.29,0,0,0-14-5.85C530.7,34,524.7,45.87,524.7,57.57c0,5.62,1.35,11.25,4.35,15.52ZM530.78,75.19c3.3,3.68,8,5.93,14.1,5.93,14.1,0,20.1-11.85,20.1-23.55,0-5.63-1.35-11.33-4.43-15.6Z"/><path class="cls-4" d="M602.4,57c-.22-5.85-4.72-8.48-10.12-8.48-4.2,0-9.15,1.65-9.15,6.68,0,4.2,4.8,5.7,8,6.52l6.3,1.43c5.4.82,11,4,11,10.72,0,8.4-8.33,11.62-15.53,11.62-9,0-15.15-4.2-15.9-13.64h4.73c.37,6.37,5.1,9.67,11.4,9.67,4.42,0,10.57-1.95,10.57-7.35,0-4.5-4.2-6-8.47-7l-6.08-1.35c-6.15-1.65-10.8-3.75-10.8-10.35,0-7.87,7.73-10.87,14.55-10.87,7.73,0,13.88,4,14.18,12.45Z"/><path class="cls-4" d="M624.9,45.64h7.88v4H624.9V75.71c0,3.08.45,4.88,3.83,5.11a36.65,36.65,0,0,0,4-.23v4c-1.43,0-2.78.15-4.2.15-6.3,0-8.48-2.1-8.4-8.7V49.62h-6.75v-4h6.75V34h4.72Z"/><path class="cls-4" d="M644.48,66.27c.07,6.9,3.67,15.22,12.75,15.22,6.9,0,10.65-4,12.15-9.9h4.72c-2,8.78-7.12,13.87-16.87,13.87-12.3,0-17.48-9.44-17.48-20.47,0-10.2,5.18-20.47,17.48-20.47s17.4,10.87,17,21.75Zm25-4c-.23-7.12-4.65-13.8-12.3-13.8s-12,6.75-12.75,13.8Z"/><path class="cls-4" d="M682.73,45.64h4.35v9.08h.15a14.29,14.29,0,0,1,14.62-9.6v4.72c-8.55-.45-14.4,5.85-14.4,13.88V84.34h-4.72Z"/><path class="cls-4" d="M708,57.49c.45-9.07,6.83-13,15.67-13,6.83,0,14.25,2.1,14.25,12.45V77.51c0,1.81.9,2.86,2.78,2.86a4.75,4.75,0,0,0,1.5-.3v4a13.24,13.24,0,0,1-3.08.3c-4.8,0-5.55-2.7-5.55-6.75h-.15c-3.3,5-6.67,7.87-14.1,7.87-7.12,0-13-3.52-13-11.32,0-10.87,10.57-11.25,20.77-12.45,3.9-.45,6.08-1,6.08-5.25,0-6.37-4.58-7.95-10.13-7.95-5.85,0-10.19,2.7-10.35,9Zm25.2,5.7h-.15c-.6,1.13-2.7,1.5-4,1.73-8,1.42-18,1.35-18,8.92,0,4.73,4.19,7.65,8.62,7.65,7.2,0,13.57-4.57,13.5-12.15Zm-9.75-37.65a8,8,0,1,1-8,8A8,8,0,0,1,723.45,25.54Zm0,13.13a5.1,5.1,0,1,0-5.1-5.1A5.06,5.06,0,0,0,723.45,38.67Z"/><path class="cls-4" d="M772.65,57c-.23-5.85-4.73-8.48-10.13-8.48-4.19,0-9.14,1.65-9.14,6.68,0,4.2,4.79,5.7,8,6.52l6.3,1.43c5.4.82,11,4,11,10.72,0,8.4-8.32,11.62-15.52,11.62-9,0-15.15-4.2-15.9-13.64H752c.37,6.37,5.09,9.67,11.39,9.67,4.43,0,10.58-1.95,10.58-7.35,0-4.5-4.2-6-8.48-7l-6.07-1.35c-6.15-1.65-10.8-3.75-10.8-10.35,0-7.87,7.73-10.87,14.55-10.87,7.72,0,13.87,4,14.17,12.45Z"/><path class="cls-4" d="M522.45,120.79H545.1c9,0,17.18,3.15,17.18,13.13a12.16,12.16,0,0,1-9.3,12v.15c6.9.9,11.32,6.07,11.32,13.05,0,5.09-1.8,15.22-19.2,15.22H522.45Zm5.1,23.48H545.1c8.18,0,12.08-4.05,12.08-9.08,0-6.67-4.13-10-12.08-10H527.55Zm0,25.72H545.1c7.58.08,14.1-2.48,14.1-11,0-6.83-5.17-10.35-14.1-10.35H527.55Z"/><path class="cls-4" d="M573.75,120.79h4.73v53.55h-4.73Z"/><path class="cls-4" d="M624.3,155c0,11.1-6.45,20.47-18.3,20.47s-18.3-9.37-18.3-20.47,6.45-20.47,18.3-20.47S624.3,143.89,624.3,155Zm-31.87,0c0,8.25,4.5,16.5,13.57,16.5s13.58-8.25,13.58-16.5-4.5-16.5-13.58-16.5S592.43,146.74,592.43,155Z"/><path class="cls-4" d="M633.45,135.64h4.35v6.53H638a13.5,13.5,0,0,1,12.67-7.65c5.1,0,9.68,2.47,11.1,7.57a13.08,13.08,0,0,1,12.3-7.57c8.48,0,12.83,4.42,12.83,13.57v26.25H682.2v-26c0-6.38-2.4-9.83-9.15-9.83-8.17,0-10.5,6.75-10.5,13.95v21.9h-4.72V148.09c.07-5.25-2.1-9.6-8.1-9.6-8.18,0-11.48,6.15-11.55,14.25v21.6h-4.73Z"/><path class="cls-4" d="M721.2,147c-.22-5.85-4.72-8.48-10.12-8.48-4.2,0-9.15,1.65-9.15,6.68,0,4.2,4.8,5.7,8,6.52l6.3,1.43c5.4.82,11,4,11,10.72,0,8.4-8.33,11.62-15.53,11.62-9,0-15.15-4.2-15.9-13.64h4.73c.37,6.37,5.1,9.67,11.4,9.67,4.42,0,10.57-2,10.57-7.35,0-4.5-4.2-6-8.47-7L708,155.74c-6.15-1.65-10.8-3.75-10.8-10.35,0-7.87,7.73-10.87,14.55-10.87,7.73,0,13.88,4,14.18,12.45Z"/><path class="cls-4" d="M743.7,135.64h7.88v4H743.7v26.09c0,3.08.45,4.88,3.83,5.11a36.65,36.65,0,0,0,4.05-.23v4c-1.43,0-2.78.15-4.2.15-6.3,0-8.48-2.1-8.4-8.7V139.62h-6.75v-4H739V124h4.72Z"/><path class="cls-4" d="M763.28,156.27c.07,6.9,3.67,15.22,12.75,15.22,6.89,0,10.64-4.05,12.14-9.9h4.73c-2,8.78-7.13,13.87-16.87,13.87-12.3,0-17.48-9.44-17.48-20.47,0-10.2,5.18-20.47,17.48-20.47s17.39,10.87,17,21.75Zm25-4c-.22-7.12-4.65-13.8-12.29-13.8s-12,6.75-12.75,13.8Z"/><path class="cls-4" d="M801.53,135.64h4.35v9.08H806a14.28,14.28,0,0,1,14.62-9.6v4.72c-8.55-.45-14.4,5.85-14.4,13.88v20.62h-4.72Z"/><rect class="cls-4" x="433.32" width="3" height="198"/></g></g></svg>